<svg xmlns="http://www.w3.org/2000/svg" viewBox="0 0 1005.29 242.62"><defs><style>.cls-1{fill:none;stroke:#1f3a24;stroke-miterlimit:10;stroke-width:8px;}</style></defs><title>_logo</title><path class="cls-1" d="M602.8,271.7a478.3,478.3,0,0,1,6.94-139.65c13.42-66.88,32.81-88.37,59.71-92,9.77-1.32,18.12.11,23,.87,38.28,5.94,59.09,33.32,76,90.3,9.79,33,20.35,80.15,17.38,138.87" transform="translate(-99.54 -35.53)"/><line class="cls-1" x1="361.96" y1="52.1" x2="361.96" y2="139.1"/><path class="cls-1" d="M507,106.47" transform="translate(-99.54 -35.53)"/><path class="cls-1" d="M801.79,151.45c-10-43.41-6.74-55.86,0-56.91,9.86-1.53,22,22.12,46.77,22.77,26.44.68,40.29-25.5,57.9-24,10.92.91,22.58,12.39,29,54.38" transform="translate(-99.54 -35.53)"/><path class="cls-1" d="M955.21,39.53c8,39.47,35.82,69.49,73.23,73.91a79.61,79.61,0,0,0,24.32-.66c32.74-6.29,51.52-35.37,47.54-73.13" transform="translate(-99.54 -35.53)"/><path class="cls-1" d="M942.1,191.92" transform="translate(-99.54 -35.53)"/><path class="cls-1" d="M941.18,187.23c12.24-1.38,82.27-10.15,127-58.18,35.36-38,33.37-77.4,32.14-89.39" transform="translate(-99.54 -35.53)"/><path class="cls-1" d="M574.79,184.67c104.5.07,208,3.24,312.85,2.19" transform="translate(-99.54 -35.53)"/><path class="cls-1" d="M857.21,156.79q.12,57.45.26,114.91" transform="translate(-99.54 -35.53)"/><path class="cls-1" d="M546.44,39.66l3.24,132.57" transform="translate(-99.54 -35.53)"/><path class="cls-1" d="M486.86,79.85h85.22" transform="translate(-99.54 -35.53)"/><line class="cls-1" x1="361.96" y1="42.1" x2="361.96" y2="47.1"/><line class="cls-1" x1="449.96" y1="158.1" x2="449.96" y2="236.1"/><path class="cls-1" d="M555.4,216.35" transform="translate(-99.54 -35.53)"/><path class="cls-1" d="M562.92,215.7" transform="translate(-99.54 -35.53)"/><path class="cls-1" d="M879.26,238.21" transform="translate(-99.54 -35.53)"/><path class="cls-1" d="M500.5,209.05c13.55,43.11,11.25,55.63,4.6,56.85-9.73,1.79-23.74-21.52-48.56-21.52-26.46,0-38.19,26.52-55.9,25.51-11-.62-23.55-11.79-33.32-53.57" transform="translate(-99.54 -35.53)"/><path class="cls-1" d="M104.07,41.35c-1.23,11.71-3.23,50.25,32.14,87.38,43.46,45.64,119.46,56.41,127,56.87a67.55,67.55,0,0,0,11.84-.4,38.31,38.31,0,0,0,16.6-5.72,46.84,46.84,0,0,0,4.56-3.14" transform="translate(-99.54 -35.53)"/><path class="cls-1" d="M327.64,170l0-.14a68.51,68.51,0,0,0-8-.14c-1,0-1.92.1-2.8.17A82.39,82.39,0,0,1,327.64,170Z" transform="translate(-99.54 -35.53)"/><path class="cls-1" d="M412,46.33a230.19,230.19,0,0,1,17.17,40.75c6.16,20,7.17,33.77,7.3,42.09a61.85,61.85,0,0,1-11.81,38.14A35.11,35.11,0,0,1,412,177.77a60.44,60.44,0,0,1-31.83,5.93,52.59,52.59,0,0,1-16.71-4.15" transform="translate(-99.54 -35.53)"/><path class="cls-1" d="M355.57,198.31c-1.39-.95-10.28-6.8-27.07-7.83a75.93,75.93,0,0,0-30.24,4.05c-16.46,6-23.17,17.89-14.72,26.44,11.48,11.61,42.35,8.33,54.85,19.39,11.51,10.17,3.3,28.8-24.75,32.95-21.14,3.12-49.7-2.55-63.55-14.74" transform="translate(-99.54 -35.53)"/><path class="cls-1" d="M277.73,186.53" transform="translate(-99.54 -35.53)"/><line class="cls-1" x1="100" y1="40" x2="100" y2="40"/></svg>